Format : MPEG-PS
File size : 3.36 GiB
Duration : 1h 37mn
Overall bit rate : 4 913 Kbps

Video
ID : 224 (0xE0)
Format : MPEG Video
Format version : Version 2
Format profile : Main@Main
Format settings, BVOP : Yes
Format settings, Matrix : Default
Format settings, GOP : M=3, N=15
Duration : 1h 37mn
Bit rate mode : Variable
Bit rate : 4 591 Kbps
Nominal bit rate : 2 519 Mbps
Width : 720 pixels
Height : 480 pixels
Display aspect ratio : 16:9
Frame rate : 29.970 fps
Standard : NTSC
Color space : YUV
Chroma subsampling : 4:2:0
Bit depth : 8 bits
Scan type : Progressive
Compression mode : Lossy
Bits/(Pixel*Frame) : 0.443
Stream size : 3.14 GiB (93%)

Audio
ID : 189 (0xBD)-128 (0x80)
Format : AC-3
Format/Info : Audio Coding 3
Mode extension : CM (complete main)
Muxing mode : DVD-Video
Duration : 1h 37mn
Bit rate mode : Constant
Bit rate : 224 Kbps
Channel(s) : 2 channels
Channel positions : Front: L R
Sampling rate : 48.0 KHz
Bit depth : 16 bits
Compression mode : Lossy
Delay relative to video : 509ms
Stream size : 157 MiB (5%)

Menu





 
http://www.imdb.com/title/tt1318514/





89524873606771859129.png



Users: (1,143 votes) 55 reviews | Critics: 31 reviews Metascore: 69/100 (based on 35 reviews from Metacritic.com)


An origin story set in present day San Francisco, where man's own experiments with genetic engineering lead to the development of intelligence in apes and the onset of a war for supremacy.

Director: Rupert Wyatt
Writers: Pierre Boulle (suggested by novel "La planete des singes", Rick Jaffa, and 1 more credit »
Stars: James Franco, Andy Serkis and Freida Pinto


 
http://www.leetleech.org/images/86791180244343892300.png
 
http://www.leetleech.org/images/03366761906231405841.png